STARTFONT 2.1
COMMENT Created by fdbbdf
FONT times10b
SIZE 10 78 78
FONTBOUNDINGBOX 12 13 -1 -4
STARTPROPERTIES 4
Ownership "  Copyright (c) 1984 Adobe Systems, Inc.  /adobe/fonttools/bitmaps/stdfontvec.ps TB12.bits  TOTAL BITMAP BYTES 1178  GUIDELINES -3 0 6 9 DONE  WIDTHERR 47 -85  "
FONT_ASCENT 9
FONT_DESCENT 4
DEFAULT_CHAR 32
ENDPROPERTIES
CHARS 95
STARTCHAR sp
ENCODING -1 32
SWIDTH 0 0
DWIDTH 3 0
BBX 0 0 0 0
BITMAP
ENDCHAR
STARTCHAR !
ENCODING -1 33
SWIDTH 0 0
DWIDTH 4 0
BBX 2 9 1 -1
BITMAP
c000
c000
c000
c000
c000
c000
0000
c000
c000
ENDCHAR
STARTCHAR "
ENCODING -1 34
SWIDTH 0 0
DWIDTH 5 0
BBX 3 4 1 4
BITMAP
a000
a000
a000
a000
ENDCHAR
STARTCHAR #
ENCODING -1 35
SWIDTH 0 0
DWIDTH 6 0
BBX 7 8 -1 0
BITMAP
1400
1400
7e00
2800
2800
fc00
5000
5000
ENDCHAR
STARTCHAR $
ENCODING -1 36
SWIDTH 0 0
DWIDTH 6 0
BBX 5 11 0 -2
BITMAP
2000
7000
a800
e800
f000
7800
3800
a800
a800
7000
2000
ENDCHAR
STARTCHAR %
ENCODING -1 37
SWIDTH 0 0
DWIDTH 12 0
BBX 9 9 1 -1
BITMAP
7080
df80
d300
7600
0c00
1b00
3680
6680
4300
ENDCHAR
STARTCHAR &
ENCODING -1 38
SWIDTH 0 0
DWIDTH 10 0
BBX 8 9 1 -1
BITMAP
3800
6c00
6c00
3b00
7200
dc00
cc00
ce00
7300
ENDCHAR
STARTCHAR '
ENCODING -1 39
SWIDTH 0 0
DWIDTH 4 0
BBX 2 4 1 4
BITMAP
c000
c000
4000
8000
ENDCHAR
STARTCHAR (
ENCODING -1 40
SWIDTH 0 0
DWIDTH 4 0
BBX 3 12 0 -4
BITMAP
2000
6000
4000
c000
c000
c000
c000
c000
c000
4000
6000
2000
ENDCHAR
STARTCHAR )
ENCODING -1 41
SWIDTH 0 0
DWIDTH 4 0
BBX 3 12 0 -4
BITMAP
8000
c000
4000
6000
6000
6000
6000
6000
6000
4000
c000
8000
ENDCHAR
STARTCHAR *
ENCODING -1 42
SWIDTH 0 0
DWIDTH 6 0
BBX 5 5 0 3
BITMAP
2000
f800
7000
f800
2000
ENDCHAR
STARTCHAR +
ENCODING -1 43
SWIDTH 0 0
DWIDTH 7 0
BBX 5 5 1 1
BITMAP
2000
2000
f800
2000
2000
ENDCHAR
STARTCHAR ,
ENCODING -1 44
SWIDTH 0 0
DWIDTH 4 0
BBX 2 4 1 -3
BITMAP
c000
c000
4000
8000
ENDCHAR
STARTCHAR -
ENCODING -1 45
SWIDTH 0 0
DWIDTH 6 0
BBX 4 1 1 3
BITMAP
f000
ENDCHAR
STARTCHAR .
ENCODING -1 46
SWIDTH 0 0
DWIDTH 4 0
BBX 2 2 1 -1
BITMAP
c000
c000
ENDCHAR
STARTCHAR /
ENCODING -1 47
SWIDTH 0 0
DWIDTH 4 0
BBX 3 9 0 -1
BITMAP
2000
2000
6000
4000
4000
c000
8000
8000
8000
ENDCHAR
STARTCHAR 0
ENCODING -1 48
SWIDTH 0 0
DWIDTH 6 0
BBX 5 9 0 -1
BITMAP
7000
d800
d800
d800
d800
d800
d800
d800
7000
ENDCHAR
STARTCHAR 1
ENCODING -1 49
SWIDTH 0 0
DWIDTH 6 0
BBX 4 9 1 -1
BITMAP
6000
e000
6000
6000
6000
6000
6000
6000
f000
ENDCHAR
STARTCHAR 2
ENCODING -1 50
SWIDTH 0 0
DWIDTH 6 0
BBX 5 9 0 -1
BITMAP
7000
d800
d800
1800
1000
2000
4800
f800
f800
ENDCHAR
STARTCHAR 3
ENCODING -1 51
SWIDTH 0 0
DWIDTH 6 0
BBX 5 9 0 -1
BITMAP
7000
d800
1800
1800
3000
1800
9800
d800
7000
ENDCHAR
STARTCHAR 4
ENCODING -1 52
SWIDTH 0 0
DWIDTH 7 0
BBX 6 9 0 -1
BITMAP
1800
3800
3800
5800
5800
d800
fc00
1800
1800
ENDCHAR
STARTCHAR 5
ENCODING -1 53
SWIDTH 0 0
DWIDTH 6 0
BBX 6 9 0 -1
BITMAP
7800
7800
8000
f000
1800
1800
d800
d800
7000
ENDCHAR
STARTCHAR 6
ENCODING -1 54
SWIDTH 0 0
DWIDTH 6 0
BBX 5 9 0 -1
BITMAP
1800
7000
6000
c000
f000
d800
d800
d800
7000
ENDCHAR
STARTCHAR 7
ENCODING -1 55
SWIDTH 0 0
DWIDTH 6 0
BBX 5 9 0 -1
BITMAP
f800
f800
8800
1000
1000
3000
2000
6000
6000
ENDCHAR
STARTCHAR 8
ENCODING -1 56
SWIDTH 0 0
DWIDTH 6 0
BBX 5 9 0 -1
BITMAP
7000
d800
c800
e800
7000
b800
9800
d800
7000
ENDCHAR
STARTCHAR 9
ENCODING -1 57
SWIDTH 0 0
DWIDTH 6 0
BBX 5 9 0 -1
BITMAP
7000
d800
d800
d800
7800
1800
1800
3000
e000
ENDCHAR
STARTCHAR :
ENCODING -1 58
SWIDTH 0 0
DWIDTH 4 0
BBX 2 6 1 -1
BITMAP
c000
c000
0000
0000
c000
c000
ENDCHAR
STARTCHAR ;
ENCODING -1 59
SWIDTH 0 0
DWIDTH 4 0
BBX 2 8 1 -3
BITMAP
c000
c000
0000
0000
c000
c000
4000
8000
ENDCHAR
STARTCHAR <
ENCODING -1 60
SWIDTH 0 0
DWIDTH 7 0
BBX 6 5 0 1
BITMAP
1c00
7000
c000
7000
1c00
ENDCHAR
STARTCHAR =
ENCODING -1 61
SWIDTH 0 0
DWIDTH 7 0
BBX 5 3 1 2
BITMAP
f800
0000
f800
ENDCHAR
STARTCHAR >
ENCODING -1 62
SWIDTH 0 0
DWIDTH 8 0
BBX 6 5 1 1
BITMAP
e000
3800
0c00
3800
e000
ENDCHAR
STARTCHAR ?
ENCODING -1 63
SWIDTH 0 0
DWIDTH 7 0
BBX 5 9 1 -1
BITMAP
7000
d800
d800
1800
3000
6000
0000
6000
6000
ENDCHAR
STARTCHAR @
ENCODING -1 64
SWIDTH 0 0
DWIDTH 12 0
BBX 11 11 0 -3
BITMAP
1f80
30c0
6060
c7e0
cd20
d920
db20
db60
6dc0
3000
1f00
ENDCHAR
STARTCHAR A
ENCODING -1 65
SWIDTH 0 0
DWIDTH 9 0
BBX 10 9 -1 -1
BITMAP
0c00
0c00
1e00
1600
2600
2300
7f00
4300
e780
ENDCHAR
STARTCHAR B
ENCODING -1 66
SWIDTH 0 0
DWIDTH 9 0
BBX 8 9 0 -1
BITMAP
fe00
6300
6300
6300
7e00
6300
6300
6300
fe00
ENDCHAR
STARTCHAR C
ENCODING -1 67
SWIDTH 0 0
DWIDTH 8 0
BBX 7 9 0 -1
BITMAP
3a00
6600
c200
c000
c000
c000
c000
6200
3c00
ENDCHAR
STARTCHAR D
ENCODING -1 68
SWIDTH 0 0
DWIDTH 9 0
BBX 8 9 0 -1
BITMAP
fc00
6600
6300
6300
6300
6300
6300
6600
fc00
ENDCHAR
STARTCHAR E
ENCODING -1 69
SWIDTH 0 0
DWIDTH 9 0
BBX 7 9 0 -1
BITMAP
fe00
6600
6200
6800
7800
6800
6200
6600
fe00
ENDCHAR
STARTCHAR F
ENCODING -1 70
SWIDTH 0 0
DWIDTH 8 0
BBX 7 9 0 -1
BITMAP
fe00
6600
6200
6800
7800
6800
6000
6000
f000
ENDCHAR
STARTCHAR G
ENCODING -1 71
SWIDTH 0 0
DWIDTH 9 0
BBX 8 9 0 -1
BITMAP
3a00
6600
c200
c000
c000
cf00
c600
6600
3e00
ENDCHAR
STARTCHAR H
ENCODING -1 72
SWIDTH 0 0
DWIDTH 10 0
BBX 9 9 0 -1
BITMAP
f780
6300
6300
6300
7f00
6300
6300
6300
f780
ENDCHAR
STARTCHAR I
ENCODING -1 73
SWIDTH 0 0
DWIDTH 5 0
BBX 4 9 0 -1
BITMAP
f000
6000
6000
6000
6000
6000
6000
6000
f000
ENDCHAR
STARTCHAR J
ENCODING -1 74
SWIDTH 0 0
DWIDTH 7 0
BBX 6 10 0 -2
BITMAP
3c00
1800
1800
1800
1800
1800
d800
d800
7000
0000
ENDCHAR
STARTCHAR K
ENCODING -1 75
SWIDTH 0 0
DWIDTH 10 0
BBX 9 9 0 -1
BITMAP
f780
6200
6400
6800
7800
6c00
6600
6300
f380
ENDCHAR
STARTCHAR L
ENCODING -1 76
SWIDTH 0 0
DWIDTH 8 0
BBX 7 9 0 -1
BITMAP
f000
6000
6000
6000
6000
6000
6200
6600
fe00
ENDCHAR
STARTCHAR M
ENCODING -1 77
SWIDTH 0 0
DWIDTH 11 0
BBX 10 9 0 -1
BITMAP
e3c0
6380
7380
7580
5d80
5d80
4980
4980
e3c0
ENDCHAR
STARTCHAR N
ENCODING -1 78
SWIDTH 0 0
DWIDTH 9 0
BBX 8 9 0 -1
BITMAP
e700
7200
7200
5a00
5a00
4e00
4e00
4600
e600
ENDCHAR
STARTCHAR O
ENCODING -1 79
SWIDTH 0 0
DWIDTH 9 0
BBX 8 9 0 -1
BITMAP
3c00
6600
c300
c300
c300
c300
c300
6600
3c00
ENDCHAR
STARTCHAR P
ENCODING -1 80
SWIDTH 0 0
DWIDTH 8 0
BBX 7 9 0 -1
BITMAP
fc00
6600
6600
6600
6600
7c00
6000
6000
f000
ENDCHAR
STARTCHAR Q
ENCODING -1 81
SWIDTH 0 0
DWIDTH 9 0
BBX 9 11 0 -3
BITMAP
3c00
6600
c300
c300
c300
c300
c300
6600
3c00
1800
0e00
ENDCHAR
STARTCHAR R
ENCODING -1 82
SWIDTH 0 0
DWIDTH 9 0
BBX 9 9 0 -1
BITMAP
fc00
6600
6600
6600
7c00
6c00
6600
6600
f700
ENDCHAR
STARTCHAR S
ENCODING -1 83
SWIDTH 0 0
DWIDTH 7 0
BBX 6 9 0 -1
BITMAP
7800
cc00
e400
7000
3800
1c00
8c00
cc00
f800
ENDCHAR
STARTCHAR T
ENCODING -1 84
SWIDTH 0 0
DWIDTH 9 0
BBX 8 9 0 -1
BITMAP
ff00
9900
9900
1800
1800
1800
1800
1800
3c00
ENDCHAR
STARTCHAR U
ENCODING -1 85
SWIDTH 0 0
DWIDTH 9 0
BBX 8 9 0 -1
BITMAP
f700
6200
6200
6200
6200
6200
6200
7600
3c00
ENDCHAR
STARTCHAR V
ENCODING -1 86
SWIDTH 0 0
DWIDTH 9 0
BBX 9 9 0 -1
BITMAP
f380
6100
6300
3200
3600
1c00
1c00
0800
0800
ENDCHAR
STARTCHAR W
ENCODING -1 87
SWIDTH 0 0
DWIDTH 12 0
BBX 11 9 0 -1
BITMAP
eee0
6c40
6640
76c0
3680
3680
3b80
1900
1100
ENDCHAR
STARTCHAR X
ENCODING -1 88
SWIDTH 0 0
DWIDTH 9 0
BBX 8 9 0 -1
BITMAP
f700
6200
3400
3800
1800
1c00
2c00
4600
ef00
ENDCHAR
STARTCHAR Y
ENCODING -1 89
SWIDTH 0 0
DWIDTH 9 0
BBX 8 9 0 -1
BITMAP
f700
6200
7600
3400
3c00
1800
1800
1800
3c00
ENDCHAR
STARTCHAR Z
ENCODING -1 90
SWIDTH 0 0
DWIDTH 8 0
BBX 7 9 0 -1
BITMAP
fe00
ce00
9c00
3800
3800
7000
e200
e600
fe00
ENDCHAR
STARTCHAR [
ENCODING -1 91
SWIDTH 0 0
DWIDTH 4 0
BBX 3 12 1 -4
BITMAP
e000
c000
c000
c000
c000
c000
c000
c000
c000
c000
c000
e000
ENDCHAR
STARTCHAR \
ENCODING -1 92
SWIDTH 0 0
DWIDTH 3 0
BBX 3 9 0 -1
BITMAP
8000
8000
c000
4000
4000
6000
2000
2000
2000
ENDCHAR
STARTCHAR ]
ENCODING -1 93
SWIDTH 0 0
DWIDTH 4 0
BBX 3 12 0 -4
BITMAP
e000
6000
6000
6000
6000
6000
6000
6000
6000
6000
6000
e000
ENDCHAR
STARTCHAR ^
ENCODING -1 94
SWIDTH 0 0
DWIDTH 7 0
BBX 5 5 1 3
BITMAP
2000
7000
5000
d800
8800
ENDCHAR
STARTCHAR _
ENCODING -1 95
SWIDTH 0 0
DWIDTH 6 0
BBX 6 1 0 -4
BITMAP
fc00
ENDCHAR
STARTCHAR `
ENCODING -1 96
SWIDTH 0 0
DWIDTH 4 0
BBX 2 4 1 4
BITMAP
4000
8000
c000
c000
ENDCHAR
STARTCHAR a
ENCODING -1 97
SWIDTH 0 0
DWIDTH 8 0
BBX 7 6 0 -1
BITMAP
7800
0c00
7c00
cc00
cc00
7e00
ENDCHAR
STARTCHAR b
ENCODING -1 98
SWIDTH 0 0
DWIDTH 8 0
BBX 7 9 0 -1
BITMAP
e000
6000
6000
7c00
6600
6600
6600
6600
fc00
ENDCHAR
STARTCHAR c
ENCODING -1 99
SWIDTH 0 0
DWIDTH 7 0
BBX 6 6 0 -1
BITMAP
7800
cc00
c000
c000
cc00
7800
ENDCHAR
STARTCHAR d
ENCODING -1 100
SWIDTH 0 0
DWIDTH 8 0
BBX 7 9 0 -1
BITMAP
1c00
0c00
0c00
7c00
cc00
cc00
cc00
cc00
7e00
ENDCHAR
STARTCHAR e
ENCODING -1 101
SWIDTH 0 0
DWIDTH 7 0
BBX 6 6 0 -1
BITMAP
7800
cc00
fc00
c000
cc00
7800
ENDCHAR
STARTCHAR f
ENCODING -1 102
SWIDTH 0 0
DWIDTH 5 0
BBX 5 9 0 -1
BITMAP
3800
6000
6000
f000
6000
6000
6000
6000
f000
ENDCHAR
STARTCHAR g
ENCODING -1 103
SWIDTH 0 0
DWIDTH 8 0
BBX 7 9 0 -4
BITMAP
7e00
cc00
cc00
7800
6000
7c00
c600
c600
7c00
ENDCHAR
STARTCHAR h
ENCODING -1 104
SWIDTH 0 0
DWIDTH 9 0
BBX 8 9 0 -1
BITMAP
e000
6000
6000
7c00
6600
6600
6600
6600
ef00
ENDCHAR
STARTCHAR i
ENCODING -1 105
SWIDTH 0 0
DWIDTH 5 0
BBX 4 9 0 -1
BITMAP
6000
6000
0000
e000
6000
6000
6000
6000
f000
ENDCHAR
STARTCHAR j
ENCODING -1 106
SWIDTH 0 0
DWIDTH 4 0
BBX 3 12 0 -4
BITMAP
6000
6000
0000
e000
6000
6000
6000
6000
6000
6000
6000
c000
ENDCHAR
STARTCHAR k
ENCODING -1 107
SWIDTH 0 0
DWIDTH 9 0
BBX 8 9 0 -1
BITMAP
e000
6000
6000
6600
6c00
7800
6c00
6600
e700
ENDCHAR
STARTCHAR l
ENCODING -1 108
SWIDTH 0 0
DWIDTH 5 0
BBX 4 9 0 -1
BITMAP
e000
6000
6000
6000
6000
6000
6000
6000
f000
ENDCHAR
STARTCHAR m
ENCODING -1 109
SWIDTH 0 0
DWIDTH 11 0
BBX 10 6 0 -1
BITMAP
db00
6d80
6d80
6d80
6d80
edc0
ENDCHAR
STARTCHAR n
ENCODING -1 110
SWIDTH 0 0
DWIDTH 9 0
BBX 8 6 0 -1
BITMAP
ec00
7600
6600
6600
6600
e700
ENDCHAR
STARTCHAR o
ENCODING -1 111
SWIDTH 0 0
DWIDTH 7 0
BBX 6 6 0 -1
BITMAP
7800
cc00
cc00
cc00
cc00
7800
ENDCHAR
STARTCHAR p
ENCODING -1 112
SWIDTH 0 0
DWIDTH 8 0
BBX 7 9 0 -4
BITMAP
fc00
6600
6600
6600
6600
7c00
6000
6000
f000
ENDCHAR
STARTCHAR q
ENCODING -1 113
SWIDTH 0 0
DWIDTH 7 0
BBX 7 9 0 -4
BITMAP
7c00
cc00
cc00
cc00
cc00
7c00
0c00
0c00
1e00
ENDCHAR
STARTCHAR r
ENCODING -1 114
SWIDTH 0 0
DWIDTH 6 0
BBX 5 6 0 -1
BITMAP
d800
7800
6000
6000
6000
f000
ENDCHAR
STARTCHAR s
ENCODING -1 115
SWIDTH 0 0
DWIDTH 6 0
BBX 5 6 0 -1
BITMAP
7800
c000
f000
7800
1800
f000
ENDCHAR
STARTCHAR t
ENCODING -1 116
SWIDTH 0 0
DWIDTH 5 0
BBX 4 8 0 -1
BITMAP
2000
6000
f000
6000
6000
6000
6000
3000
ENDCHAR
STARTCHAR u
ENCODING -1 117
SWIDTH 0 0
DWIDTH 9 0
BBX 8 6 0 -1
BITMAP
e600
6600
6600
6600
6600
3b00
ENDCHAR
STARTCHAR v
ENCODING -1 118
SWIDTH 0 0
DWIDTH 8 0
BBX 7 6 0 -1
BITMAP
ee00
6c00
6c00
3800
3800
1000
ENDCHAR
STARTCHAR w
ENCODING -1 119
SWIDTH 0 0
DWIDTH 11 0
BBX 10 6 0 -1
BITMAP
ddc0
6c80
6d80
6d00
3700
3600
ENDCHAR
STARTCHAR x
ENCODING -1 120
SWIDTH 0 0
DWIDTH 7 0
BBX 6 6 0 -1
BITMAP
ec00
6800
3000
3000
5800
dc00
ENDCHAR
STARTCHAR y
ENCODING -1 121
SWIDTH 0 0
DWIDTH 7 0
BBX 7 9 0 -4
BITMAP
ee00
c400
6800
6800
3000
3000
2000
4000
e000
ENDCHAR
STARTCHAR z
ENCODING -1 122
SWIDTH 0 0
DWIDTH 6 0
BBX 5 6 0 -1
BITMAP
f800
9800
3000
6000
c800
f800
ENDCHAR
STARTCHAR {
ENCODING -1 123
SWIDTH 0 0
DWIDTH 5 0
BBX 5 12 0 -4
BITMAP
1800
3000
3000
3000
6000
c000
6000
3000
3000
3000
3000
1800
ENDCHAR
STARTCHAR |
ENCODING -1 124
SWIDTH 0 0
DWIDTH 3 0
BBX 1 12 1 -4
BITMAP
8000
8000
8000
8000
8000
8000
8000
8000
8000
8000
8000
8000
ENDCHAR
STARTCHAR }
ENCODING -1 125
SWIDTH 0 0
DWIDTH 5 0
BBX 5 12 0 -4
BITMAP
c000
6000
6000
6000
3000
1800
3000
6000
6000
6000
6000
c000
ENDCHAR
STARTCHAR ~
ENCODING -1 126
SWIDTH 0 0
DWIDTH 7 0
BBX 6 3 0 2
BITMAP
6400
fc00
9800
ENDCHAR
ENDFONT
